<svg width="512" height="512" viewBox="0 0 512 512" fill="none" xmlns="http://www.w3.org/2000/svg">
  <defs>
    <linearGradient id="bg" x1="68" y1="44" x2="438" y2="468" gradientUnits="userSpaceOnUse">
      <stop stop-color="#071A35" />
      <stop offset="0.58" stop-color="#0A1530" />
      <stop offset="1" stop-color="#110E24" />
    </linearGradient>
    <linearGradient id="stroke" x1="96" y1="76" x2="420" y2="432" gradientUnits="userSpaceOnUse">
      <stop stop-color="#58E0FF" />
      <stop offset="0.52" stop-color="#4A82FF" />
      <stop offset="1" stop-color="#FF8A62" />
    </linearGradient>
    <linearGradient id="core" x1="182" y1="148" x2="334" y2="364" gradientUnits="userSpaceOnUse">
      <stop stop-color="#6BEEFF" />
      <stop offset="0.52" stop-color="#58A9FF" />
      <stop offset="1" stop-color="#FF8D64" />
    </linearGradient>
    <filter id="glow" x="111" y="109" width="290" height="294" filterUnits="userSpaceOnUse" color-interpolation-filters="sRGB">
      <feFlood flood-opacity="0" result="BackgroundImageFix" />
      <feBlend mode="normal" in="SourceGraphic" in2="BackgroundImageFix" result="shape" />
      <feGaussianBlur stdDeviation="12" result="effect1_foregroundBlur_1_2" />
    </filter>
  </defs>
  <rect x="28" y="28" width="456" height="456" rx="128" fill="url(#bg)" />
  <rect x="28" y="28" width="456" height="456" rx="128" stroke="#FFFFFF" stroke-opacity="0.14" />
  <path d="M120 144H232" stroke="#17355E" stroke-width="10" stroke-linecap="round" />
  <path d="M280 144H392" stroke="#17355E" stroke-width="10" stroke-linecap="round" />
  <path d="M144 120V232" stroke="#17355E" stroke-width="10" stroke-linecap="round" />
  <path d="M368 280V392" stroke="#17355E" stroke-width="10" stroke-linecap="round" />
  <path d="M120 368H232" stroke="#17355E" stroke-width="10" stroke-linecap="round" />
  <path d="M280 368H392" stroke="#17355E" stroke-width="10" stroke-linecap="round" />
  <path d="M368 120V232" stroke="#17355E" stroke-width="10" stroke-linecap="round" />
  <path d="M144 280V392" stroke="#17355E" stroke-width="10" stroke-linecap="round" />
  <circle cx="256" cy="256" r="126" stroke="url(#stroke)" stroke-opacity="0.18" stroke-width="8" />
  <circle cx="256" cy="256" r="92" stroke="url(#stroke)" stroke-opacity="0.26" stroke-width="8" />
  <g filter="url(#glow)">
    <circle cx="256" cy="256" r="74" stroke="url(#stroke)" stroke-width="14" />
    <path d="M256 184V224" stroke="url(#core)" stroke-width="16" stroke-linecap="round" />
    <path d="M224 256H184" stroke="url(#core)" stroke-width="16" stroke-linecap="round" />
    <path d="M288 256H328" stroke="url(#core)" stroke-width="16" stroke-linecap="round" />
    <path d="M229 283L283 229" stroke="url(#core)" stroke-width="18" stroke-linecap="round" />
    <path d="M229 229L283 283" stroke="url(#core)" stroke-width="18" stroke-linecap="round" />
  </g>
  <circle cx="256" cy="256" r="18" fill="#F3FAFF" />
  <circle cx="144" cy="144" r="16" fill="#56DEFF" />
  <circle cx="368" cy="144" r="16" fill="#5A8AFF" />
  <circle cx="144" cy="368" r="16" fill="#4AD2FF" />
  <circle cx="368" cy="368" r="16" fill="#FF8D64" />
</svg>
